<?xml version="1.0" standalone="no"?>
<!DOCTYPE svg PUBLIC "-//W3C//DTD SVG 20010904//EN"
 "http://www.w3.org/TR/2001/REC-SVG-20010904/DTD/svg10.dtd">
<svg version="1.0" xmlns="http://www.w3.org/2000/svg"
 width="462.000000pt" height="143.000000pt" viewBox="0 0 462.000000 143.000000"
 preserveAspectRatio="xMidYMid meet">

<g transform="translate(0.000000,143.000000) scale(0.100000,-0.100000)"
fill="#000000" stroke="none">
<path d="M1640 315 c0 -43 4 -75 10 -75 6 0 10 26 10 58 l1 57 30 -57 c21 -41
35 -58 49 -58 18 0 20 7 20 75 0 60 -3 75 -15 75 -12 0 -15 -13 -15 -57 l-1
-58 -30 58 c-42 81 -59 76 -59 -18z"/>
<path d="M2366 374 c-26 -26 -18 -42 32 -68 44 -22 40 -52 -6 -50 -18 1 -32
-2 -32 -8 0 -5 19 -8 43 -6 39 3 42 5 45 33 3 27 -2 33 -33 48 -44 21 -47 47
-5 47 17 0 30 5 30 10 0 16 -57 12 -74 -6z"/>
<path d="M3090 315 c0 -43 4 -75 10 -75 6 0 10 32 10 75 0 43 -4 75 -10 75 -6
0 -10 -32 -10 -75z"/>
<path d="M3940 364 c0 -20 -4 -25 -16 -20 -8 3 -24 1 -35 -5 -16 -8 -19 -19
-17 -52 3 -42 3 -42 46 -43 l42 -2 0 74 c0 43 -4 74 -10 74 -5 0 -10 -12 -10
-26z m-4 -60 c7 -28 -16 -61 -35 -50 -12 8 -15 59 -4 69 14 15 33 6 39 -19z"/>
<path d="M4050 315 c0 -60 3 -75 15 -75 10 0 15 10 15 30 0 25 4 30 23 30 29
0 47 18 47 47 0 26 -27 43 -69 43 l-31 0 0 -75z m75 30 c0 -13 -8 -21 -22 -23
-19 -3 -23 1 -23 23 0 22 4 26 23 23 14 -2 22 -10 22 -23z"/>
<path d="M4180 315 c0 -43 4 -75 10 -75 6 0 10 32 10 75 0 43 -4 75 -10 75 -6
0 -10 -32 -10 -75z"/>
<path d="M1908 353 c-7 -32 9 -104 25 -121 22 -22 35 -7 14 16 -22 24 -23 82
-2 82 12 0 11 4 -5 20 -24 24 -28 25 -32 3z"/>
<path d="M4470 356 c0 -8 -6 -17 -12 -19 -10 -4 -10 -6 0 -6 8 -1 12 -17 12
-46 0 -34 5 -47 19 -55 12 -6 22 -6 25 -1 3 5 -1 11 -9 15 -19 7 -21 82 -2 89
10 4 10 6 0 6 -7 1 -13 8 -13 16 0 8 -4 15 -10 15 -5 0 -10 -6 -10 -14z"/>
<path d="M1813 343 c-21 -8 -15 -19 10 -18 34 0 35 -19 1 -25 -23 -4 -29 -10
-29 -30 0 -23 4 -25 43 -26 l42 -2 0 38 c0 53 -28 79 -67 63z m47 -67 c0 -18
-30 -30 -43 -17 -5 5 -6 14 -3 20 10 16 46 13 46 -3z"/>
<path d="M2130 340 c-8 -5 -18 -6 -22 -4 -4 3 -8 -18 -8 -45 0 -28 5 -51 10
-51 6 0 10 18 10 40 0 33 4 42 22 49 12 4 17 10 12 14 -6 3 -16 2 -24 -3z"/>
<path d="M2202 343 c-21 -8 -33 -50 -22 -78 8 -20 16 -25 45 -25 19 0 35 4 35
9 0 6 -12 9 -26 8 -15 -1 -29 4 -31 11 -3 8 7 12 32 12 35 0 37 1 30 27 -9 38
-29 50 -63 36z m46 -30 c2 -8 -6 -13 -22 -13 -25 0 -33 10 -19 24 10 10 36 3
41 -11z"/>
<path d="M2497 332 c-34 -37 -13 -92 33 -92 47 0 68 61 32 93 -24 22 -45 21
-65 -1z m59 -28 c4 -17 1 -31 -10 -42 -15 -15 -17 -15 -32 0 -22 22 -11 68 16
68 13 0 22 -9 26 -26z"/>
<path d="M2755 341 c-3 -6 -12 -8 -20 -4 -12 4 -15 -5 -15 -46 0 -28 5 -51 10
-51 6 0 10 18 10 40 0 33 4 42 22 49 13 5 17 10 10 15 -6 3 -13 2 -17 -3z"/>
<path d="M2816 334 c-19 -18 -21 -65 -4 -82 15 -15 68 -16 68 -1 0 6 -8 8 -17
5 -28 -9 -45 8 -41 40 2 23 9 30 33 34 25 5 27 7 12 13 -27 10 -34 9 -51 -9z"/>
<path d="M2920 330 c-38 -38 -18 -90 35 -90 19 0 35 5 35 11 0 6 -9 8 -20 4
-12 -4 -28 -1 -37 7 -14 11 -11 14 23 18 32 4 38 9 36 25 -3 20 -28 45 -44 45
-4 0 -17 -9 -28 -20z m54 -15 c4 -11 -2 -15 -24 -15 -22 0 -28 4 -24 15 4 8
14 15 24 15 10 0 20 -7 24 -15z"/>
<path d="M3175 340 c-3 -5 -12 -7 -20 -3 -12 4 -15 -5 -15 -46 0 -28 5 -51 10
-51 6 0 10 15 10 33 0 41 13 62 34 54 11 -4 16 -19 16 -47 0 -53 18 -52 22 2
2 31 8 44 21 46 14 3 17 -4 17 -42 0 -25 5 -46 10 -46 6 0 10 22 10 49 0 53
-16 69 -50 51 -13 -7 -21 -7 -25 0 -8 13 -32 13 -40 0z"/>
<path d="M3345 343 c-18 -3 -20 -10 -17 -73 2 -39 8 -70 13 -70 5 0 9 9 9 20
0 15 7 20 25 20 35 0 53 44 33 80 -14 25 -28 31 -63 23z m50 -33 c7 -23 -12
-63 -28 -57 -14 4 -21 41 -13 63 8 21 34 17 41 -6z"/>
<path d="M3475 341 c-3 -6 -12 -8 -20 -4 -12 4 -15 -5 -15 -46 0 -28 5 -51 10
-51 6 0 10 15 10 33 0 36 8 52 30 59 10 3 11 6 3 11 -7 4 -14 3 -18 -2z"/>
<path d="M3537 332 c-34 -37 -13 -92 33 -92 47 0 68 61 32 93 -24 22 -45 21
-65 -1z m61 -33 c2 -15 -4 -31 -13 -39 -24 -20 -50 9 -41 45 9 36 50 32 54 -6z"/>
<path d="M3766 334 c-19 -18 -21 -65 -4 -82 14 -14 82 -17 74 -3 -3 5 -14 7
-24 4 -10 -2 -24 3 -31 11 -12 14 -9 16 23 16 32 0 36 3 36 25 0 14 -8 29 -19
35 -27 14 -37 13 -55 -6z m52 -21 c2 -8 -6 -13 -22 -13 -25 0 -33 10 -19 24
10 10 36 3 41 -11z"/>
<path d="M4240 340 c-11 -7 -7 -10 18 -10 40 0 45 -27 5 -32 -22 -2 -28 -8
-28 -28 0 -22 4 -25 41 -26 l41 -2 -5 47 c-6 58 -32 77 -72 51z m50 -64 c0 -8
-5 -18 -11 -22 -14 -8 -33 11 -25 25 10 16 36 13 36 -3z"/>
<path d="M4373 343 c-20 -4 -23 -11 -23 -54 0 -60 18 -66 22 -7 2 31 8 44 21
46 14 3 17 -4 17 -42 0 -25 5 -46 10 -46 6 0 10 22 10 49 0 35 -4 51 -16 55
-9 3 -16 5 -17 5 -1 -1 -12 -4 -24 -6z"/>
<path d="M4548 339 c-27 -15 -21 -39 12 -51 34 -11 35 -33 2 -33 -11 0 -25 -4
-29 -9 -4 -4 10 -6 32 -4 32 2 41 7 43 24 2 16 -5 25 -27 34 -40 16 -39 30 2
30 24 0 28 3 17 10 -19 12 -30 12 -52 -1z"/>
<path d="M1980 303 c0 -52 10 -63 53 -61 l37 1 0 49 c0 35 -4 48 -14 48 -10 0
-16 -14 -18 -42 -2 -30 -8 -43 -18 -43 -10 0 -16 13 -18 43 -4 52 -22 56 -22
5z"/>
<path d="M2600 316 c0 -14 4 -36 10 -50 8 -21 15 -25 45 -24 l35 1 0 49 c0 26
-4 48 -10 48 -5 0 -10 -15 -10 -33 0 -31 -14 -57 -32 -57 -4 0 -8 20 -8 45 0
33 -4 45 -15 45 -9 0 -15 -9 -15 -24z"/>
<path d="M3640 333 c0 -18 34 -93 42 -93 5 0 18 21 28 46 23 52 23 54 11 54
-4 0 -15 -17 -23 -37 l-14 -38 -14 38 c-12 32 -30 50 -30 30z"/>
</g>
</svg>
